<?xml version="1.0" standalone="no"?>
<!DOCTYPE svg PUBLIC "-//W3C//DTD SVG 20010904//EN"
 "http://www.w3.org/TR/2001/REC-SVG-20010904/DTD/svg10.dtd">
<svg version="1.0" xmlns="http://www.w3.org/2000/svg"
 width="64.000000pt" height="64.000000pt" viewBox="0 0 64.000000 64.000000"
 preserveAspectRatio="xMidYMid meet">

<g transform="translate(0.000000,64.000000) scale(0.100000,-0.100000)"
fill="#000000" stroke="none">
<path d="M266 609 c-30 -26 -40 -29 -70 -23 -51 9 -82 -14 -91 -65 -5 -34 -14
-44 -45 -62 -46 -26 -54 -49 -33 -100 14 -35 14 -43 0 -78 -21 -51 -13 -74 33
-100 31 -17 40 -29 45 -60 9 -56 34 -75 86 -67 36 6 45 3 75 -24 44 -38 64
-38 108 1 30 26 40 29 70 23 51 -9 82 14 91 65 5 34 14 44 45 62 46 26 54 49
33 100 -14 35 -14 43 0 78 21 51 13 74 -33 100 -31 18 -40 28 -45 62 -9 51
-40 74 -91 65 -30 -6 -40 -3 -70 23 -44 39 -64 39 -108 0z m94 -34 c19 -21 33
-25 76 -25 56 0 54 2 68 -62 4 -18 21 -37 47 -54 30 -19 39 -30 34 -42 -32
-76 -32 -68 0 -144 5 -12 -4 -23 -34 -42 -26 -17 -43 -36 -47 -54 -14 -64 -12
-62 -68 -62 -43 0 -57 -4 -76 -25 -30 -32 -47 -31 -82 2 -23 22 -36 26 -77 24
-53 -1 -51 -3 -65 61 -4 18 -21 37 -47 54 -30 19 -39 30 -34 42 32 76 32 68 0
144 -5 12 4 23 33 42 39 25 43 31 56 89 6 25 10 27 59 27 44 0 58 4 77 25 13
14 31 25 40 25 9 0 27 -11 40 -25z"/>
<path d="M230 482 c-52 -16 -66 -74 -27 -110 29 -27 61 -28 87 -2 46 46 0 131
-60 112z m39 -51 c13 -23 -10 -47 -34 -37 -18 7 -20 42 -2 49 21 9 26 7 36
-12z"/>
<path d="M305 330 c-103 -103 -127 -132 -117 -142 10 -10 39 14 142 117 121
121 138 144 114 152 -5 2 -68 -55 -139 -127z"/>
<path d="M350 270 c-41 -41 -13 -113 45 -113 60 0 86 70 42 111 -29 27 -61 28
-87 2z m68 -46 c4 -29 -28 -41 -45 -18 -10 13 -10 21 -1 31 16 19 42 12 46
-13z"/>
</g>
</svg>
